<svg id="visual" viewBox="0 0 960 540" width="960" height="540" xmlns="http://www.w3.org/2000/svg" xmlns:xlink="http://www.w3.org/1999/xlink" version="1.1"><rect width="960" height="540" fill="#fcfaf8"></rect><g><g transform="translate(584 132)"><path d="M0 -75.7L65.5 -37.8L65.5 37.8L0 75.7L-65.5 37.8L-65.5 -37.8Z" fill="none" stroke="#b5b5b3" stroke-width="4"></path></g><g transform="translate(242 447)"><path d="M0 -63L54.6 -31.5L54.6 31.5L0 63L-54.6 31.5L-54.6 -31.5Z" stroke="#b5b5b3" fill="none" stroke-width="4"></path></g><g transform="translate(630 313)"><path d="M0 -52L45 -26L45 26L0 52L-45 26L-45 -26Z" stroke="#b5b5b3" fill="none" stroke-width="4"></path></g><g transform="translate(768 149)"><path d="M0 -43L37.2 -21.5L37.2 21.5L0 43L-37.2 21.5L-37.2 -21.5Z" stroke="#b5b5b3" fill="none" stroke-width="4"></path></g><g transform="translate(77 360)"><path d="M0 -39L33.8 -19.5L33.8 19.5L0 39L-33.8 19.5L-33.8 -19.5Z" stroke="#b5b5b3" fill="none" stroke-width="4"></path></g><g transform="translate(507 401)"><path d="M0 -38L32.9 -19L32.9 19L0 38L-32.9 19L-32.9 -19Z" stroke="#b5b5b3" fill="none" stroke-width="4"></path></g><g transform="translate(840 431)"><path d="M0 -59L51.1 -29.5L51.1 29.5L0 59L-51.1 29.5L-51.1 -29.5Z" stroke="#b5b5b3" fill="none" stroke-width="4"></path></g><g transform="translate(307 229)"><path d="M0 -55L47.6 -27.5L47.6 27.5L0 55L-47.6 27.5L-47.6 -27.5Z" stroke="#b5b5b3" fill="none" stroke-width="4"></path></g></g></svg>