<svg xmlns="http://www.w3.org/2000/svg" version="1.1" xmlns:xlink="http://www.w3.org/1999/xlink" xmlns:svgjs="http://svgjs.dev/svgjs" width="1440" height="560" preserveAspectRatio="none" viewBox="0 0 1440 560"><g mask="url(&quot;#SvgjsMask1022&quot;)" fill="none"><rect width="1440" height="560" x="0" y="0" fill="rgba(252, 251, 248, 1)"></rect><path d="M116.67 0C116.67 38.36 33.53 128.33 0 128.33C-24.81 128.33 -30.56 33.61 0 0C27.78 -30.56 116.67 -25.8 116.67 0" stroke="rgba(0, 0, 0, 0.61)" stroke-width="2"></path><path d="M280 126C228.51 64.78 180.53 38.9 180.53 0C180.53 -24.1 230.26 0 280 0C350 0 350 0 420 0C469.67 0 475.01 -12.88 519.35 0C545.01 7.45 540.22 40.65 560 40.65C578.8 40.65 572.33 7.02 596.52 0C642.33 -13.3 648.26 0 700 0C767.36 0 767.93 -1.78 834.72 0C837.93 0.09 837.27 3.73 840 3.73C843.17 3.73 842.78 0.1 846.51 0C912.78 -1.77 913.26 0 980 0C1050 0 1050 0 1120 0C1190 0 1190 0 1260 0C1318.61 0 1322.31 -8.94 1377.21 0C1392.31 2.46 1389.95 22.79 1400 22.79C1408.34 22.79 1401.74 2 1414 0C1471.74 -9.4 1510.16 -33.16 1540 0C1573.16 36.84 1540 70 1540 140C1540 210 1540 210 1540 280C1540 350 1540 350 1540 420C1540 466.34 1556.88 474.71 1540 512.68C1525.77 544.71 1512.87 548.14 1477.78 560C1442.87 571.8 1438.89 560 1400 560C1330 560 1330 560 1260 560C1190 560 1190 560 1120 560C1050 560 1050 560 980 560C910 560 910 560 840 560C770 560 770 560 700 560C634.51 560 592.84 593.41 569.03 560C542.95 523.41 602.99 487.79 600.23 420C598.48 377.09 586.82 338.6 560 338.6C526 338.6 484.68 371.9 478.6 420C470.68 482.6 548.77 519.94 532 560C519.47 589.94 476 560 420 560C397.6 560 396.1 566.7 375.2 560C326.1 544.25 328.68 515.09 280 515.09C218.45 515.09 217.76 539.78 154.74 560C147.76 562.24 147.37 560 140 560C70 560 35 595 0 560C-35 525 0 490 0 420C0 350 0 350 0 280C0 241.82 -23.39 226.35 0 203.64C46.61 158.41 83.33 125.96 140 144.12C202.48 164.14 186.11 214.73 238.3 280C256.11 302.27 260.8 319.2 280 319.2C296.5 319.2 307.33 303.24 309.7 280C316.46 213.64 311.02 206.16 298.26 140C296.17 129.16 287.38 134.78 280 126" stroke="rgba(0, 0, 0, 0.61)" stroke-width="2"></path><path d="M840 263.13C829.21 263.13 817.42 268.32 817.42 280C817.42 305.92 829.8 338.33 840 338.33C849.95 338.33 857.72 306.83 857.72 280C857.72 269.23 849.36 263.13 840 263.13" stroke="rgba(0, 0, 0, 0.61)" stroke-width="2"></path><path d="M1120 264.86C1115.76 264.86 1112.33 272.04 1112.33 280C1112.33 293.61 1115.68 308 1120 308C1124.42 308 1129.82 293.41 1129.82 280C1129.82 271.84 1124.51 264.86 1120 264.86" stroke="rgba(0, 0, 0, 0.61)" stroke-width="2"></path><path d="M1400 260C1392.16 260 1385.76 268.61 1385.76 280C1385.76 308.61 1391.75 340 1400 340C1408.42 340 1419.09 307.79 1419.09 280C1419.09 267.79 1408.83 260 1400 260" stroke="rgba(0, 0, 0, 0.61)" stroke-width="2"></path><path d="M63.64 0C63.64 20.92 18.29 70 0 70C-13.53 70 -16.67 18.33 0 0C15.15 -16.67 63.64 -14.08 63.64 0" stroke="rgba(0, 0, 0, 0.61)" stroke-width="2"></path><path d="M280 9.33C275.26 5.76 272.63 2.88 272.63 0C272.63 -1.79 276.32 0 280 0C350 0 350 0 420 0C441.45 0 462.9 -14.7 462.9 0C462.9 40.72 457.25 108.93 420 110.83C365.8 113.59 348.94 61.18 280 9.33" stroke="rgba(0, 0, 0, 0.61)" stroke-width="2"></path><path d="M449.17 140C502.73 115.21 505.03 97.1 560 97.1C609.7 97.1 611.46 114.82 658.52 140C681.46 152.27 682.13 172 700 172C712.87 172 720 156.06 720 140C720 123.59 708.88 124.15 700 107.06C672.5 54.15 647.25 37.12 647.25 0C647.25 -16.41 673.63 0 700 0C734.34 0 737.86 -11.09 768.68 0C807.86 14.11 803.15 50.4 840 50.4C882.76 50.4 881.68 16.64 927.91 0C951.68 -8.56 953.95 0 980 0C1015 0 1023.75 -17.5 1050 0C1093.75 29.17 1079.85 51.96 1120 93.33C1147.79 121.96 1185.88 119.73 1185.88 140C1185.88 158.2 1142.53 144.31 1120 170.27C1081.78 214.31 1073.01 221.87 1064.38 280C1054.48 346.73 1066.48 351.92 1082.94 420C1094.29 466.92 1101.23 510 1120 510C1138.85 510 1143.77 466.53 1158.18 420C1179.38 351.53 1164.12 345.48 1191.23 280C1215.03 222.5 1226.03 174.05 1260 174.05C1293.63 174.05 1307.17 222.17 1326.44 280C1348.14 345.14 1322.3 353.7 1341.95 420C1359.08 477.79 1372.26 473.49 1400 528.18C1407.76 543.49 1412.96 548.45 1412.96 560C1412.96 564.36 1406.48 560 1400 560C1330 560 1330 560 1260 560C1190 560 1190 560 1120 560C1061.66 560 1061.41 562.23 1003.33 560C991.41 559.54 991.11 554.62 980 554.62C975.76 554.62 977.14 559.83 972.63 560C907.14 562.52 906.32 560 840 560C770 560 770 560 700 560C690.97 560 685.22 567.7 681.94 560C655.45 497.7 663.49 489.24 640.46 420C616.93 349.24 619.34 347.41 588.82 280C579.11 258.57 574.41 242.31 560 242.31C545.59 242.31 547.41 262.75 531.18 280C477.41 337.18 466.91 391.18 420 391.18C382.69 391.18 362.73 335.94 362.73 280C362.73 221.29 386.18 216.66 420 161.88C429.4 146.66 432.73 147.6 449.17 140" stroke="rgba(0, 0, 0, 0.61)" stroke-width="2"></path><path d="M1260 77C1235.39 77 1202.96 24.13 1202.96 0C1202.96 -14.37 1231.48 0 1260 0C1277.9 0 1295.81 -11.42 1295.81 0C1295.81 27.08 1281.81 77 1260 77" stroke="rgba(0, 0, 0, 0.61)" stroke-width="2"></path><path d="M1323 140C1323 121.92 1362.77 104.19 1400 104.19C1428.77 104.19 1455 121.95 1455 140C1455 158.19 1428.82 176.67 1400 176.67C1362.82 176.67 1323 158.16 1323 140" stroke="rgba(0, 0, 0, 0.61)" stroke-width="2"></path><path d="M1540 96.73C1518.73 96.73 1464 29.9 1464 0C1464 -18.47 1523.28 -21.28 1540 0C1561.28 27.08 1556.73 96.73 1540 96.73" stroke="rgba(0, 0, 0, 0.61)" stroke-width="2"></path><path d="M98.52 280C98.52 262.71 121.53 247.06 140 247.06C154.18 247.06 163.83 263.09 163.83 280C163.83 298.87 154.52 318.62 140 318.62C121.87 318.62 98.52 298.49 98.52 280" stroke="rgba(0, 0, 0, 0.61)" stroke-width="2"></path><path d="M840 220.96C802.24 220.96 767.39 240.14 760.97 280C751.35 339.66 780.1 352.01 807.92 420C819.61 448.56 822.17 473.1 840 473.1C859.6 473.1 872.69 451.42 882.78 420C903.7 354.87 915.35 341.97 902.03 280C893.96 242.45 872.77 220.96 840 220.96" stroke="rgba(0, 0, 0, 0.61)" stroke-width="2"></path><path d="M1498.64 280C1511.92 246.27 1528.68 219.33 1540 219.33C1549.36 219.33 1540 249.66 1540 280C1540 350 1540 350 1540 420C1540 441.69 1552.83 463.38 1540 463.38C1513.35 463.38 1468.96 455.14 1461.03 420C1448.28 363.45 1472.43 346.6 1498.64 280" stroke="rgba(0, 0, 0, 0.61)" stroke-width="2"></path><path d="M0 382.31C10.1 382.31 35 398.65 35 420C35 452.49 9.24 490 0 490C-8.26 490 0 455 0 420C0 401.15 -7.4 382.31 0 382.31" stroke="rgba(0, 0, 0, 0.61)" stroke-width="2"></path><path d="M231.88 420C231.88 404.91 254.21 389.2 280 389.2C321.05 389.2 365.56 404.99 365.56 420C365.56 434.92 321.21 449.06 280 449.06C254.37 449.06 231.88 434.84 231.88 420" stroke="rgba(0, 0, 0, 0.61)" stroke-width="2"></path><path d="M10.61 0C10.61 3.49 3.05 11.67 0 11.67C-2.26 11.67 -2.78 3.06 0 0C2.53 -2.78 10.61 -2.35 10.61 0" stroke="rgba(0, 0, 0, 0.61)" stroke-width="2"></path><path d="M700 4.12C698.87 4.12 697.97 1.43 697.97 0C697.97 -0.63 698.99 0 700 0C701.32 0 702.64 -0.72 702.64 0C702.64 1.34 701.2 4.12 700 4.12" stroke="rgba(0, 0, 0, 0.61)" stroke-width="2"></path><path d="M782.5 140C782.5 119.22 806.57 102.99 840 97.07C905.32 85.49 917.65 88.37 980 105C998.15 109.84 996.91 120.34 1001 140C1015.13 207.84 1021.62 210.94 1016.44 280C1011.12 350.94 997.57 420 980 420C962.51 420 980.99 339.72 946.33 280C910.99 219.12 895.63 226.34 840 178.8C813.71 156.34 782.5 160.09 782.5 140" stroke="rgba(0, 0, 0, 0.61)" stroke-width="2"></path><path d="M1540 33.09C1532.72 33.09 1514 10.23 1514 0C1514 -6.32 1534.28 -7.28 1540 0C1547.28 9.27 1545.72 33.09 1540 33.09" stroke="rgba(0, 0, 0, 0.61)" stroke-width="2"></path><path d="M415.76 280C415.76 275.65 417.21 271.25 420 271.25C423.45 271.25 428.24 275.69 428.24 280C428.24 284.18 423.48 288.24 420 288.24C417.24 288.24 415.76 284.15 415.76 280" stroke="rgba(0, 0, 0, 0.61)" stroke-width="2"></path><path d="M691.76 280C692.49 274.41 696.46 272 700 272C702.84 272 703.47 275.54 704.52 280C720.97 349.54 736.58 353.3 735 420C734.32 448.76 714.43 470.91 700 470.91C687.28 470.91 681.84 446.67 680.69 420C677.72 351.21 682.83 348.41 691.76 280" stroke="rgba(0, 0, 0, 0.61)" stroke-width="2"></path><path d="M1252.63 280C1252.63 273.37 1256.36 268.65 1260 268.65C1263.6 268.65 1267.12 273.43 1267.12 280C1267.12 331.61 1263.62 385 1260 385C1256.38 385 1252.63 331.55 1252.63 280" stroke="rgba(0, 0, 0, 0.61)" stroke-width="2"></path></g><defs><mask id="SvgjsMask1022"><rect width="1440" height="560" fill="#ffffff"></rect></mask></defs></svg>